# Blender v2.90.1 OBJ File: 'heavy_enemy_ship.blend'
# www.blender.org
mtllib heavy_enemy_ship.mtl
o Cube
v 0.741632 -0.193614 -2.277763
v 0.741632 0.230782 -2.277763
v -2.713905 0.230888 -2.277763
v -2.713905 -0.193720 -2.277763
v -2.713905 -0.193720 2.253941
v -2.713905 0.230888 2.253941
v 0.741632 0.230782 2.253941
v 0.741632 -0.193614 2.253941
v 1.882821 1.245212 -1.889415
v 1.882821 -1.208044 -1.889415
v 1.882821 -1.658623 -1.225616
v 1.882821 1.245212 1.891439
v 1.882821 -1.658623 1.227641
v 1.882821 -1.208044 1.891439
v -1.898034 1.245826 -1.889415
v -1.898034 -1.208658 -1.889415
v -1.898034 -1.658623 -1.226229
v -1.898034 1.245826 1.891439
v -1.898034 -1.658623 1.228254
v -1.898034 -1.208658 1.891439
v 3.161093 0.803427 -1.448307
v 3.155457 1.476620 -0.807178
v 3.896410 0.601464 -0.608855
v 3.161093 -0.766259 -1.448307
v 3.888520 -0.571556 -0.589128
v 3.161093 -1.430736 -0.783830
v 3.155457 0.799787 1.468530
v 3.896410 0.601464 0.593374
v 3.155457 1.476621 0.791697
v 3.161093 -0.766259 1.450333
v 3.161093 -1.430736 0.785855
v 3.888520 -0.571556 0.591153
v -4.415867 -0.018291 4.532336
v -4.415867 0.015629 4.532336
v -5.139844 0.015637 4.532336
v -5.139844 -0.018300 4.532336
v -5.167291 -0.018300 -4.510226
v -5.167291 0.015637 -4.510226
v -4.443314 0.015629 -4.510226
v -4.443314 -0.018291 -4.510226
v -6.932268 -0.370814 0.293287
v -6.932268 -0.273691 0.390410
v -6.932268 0.310858 0.390410
v -6.932268 0.407982 0.293287
v -6.932268 0.407982 -0.291262
v -6.932268 0.310858 -0.388385
v -6.932268 -0.273691 -0.388385
v -6.932268 -0.370814 -0.291262
v -6.932268 -0.343291 0.558439
v -6.932268 -0.538843 0.362887
v -6.932268 0.380458 0.558439
v -6.932268 0.576010 0.362887
v -6.932268 0.576010 -0.360862
v -6.932268 0.380458 -0.556414
v -6.932268 -0.343291 -0.556414
v -6.932268 -0.538843 -0.360862
v -7.597578 -0.317541 0.305321
v -7.597578 -0.285724 0.337138
v -7.597578 0.322892 0.337138
v -7.597578 0.354709 0.305321
v -7.597578 0.354709 -0.303295
v -7.597578 0.322892 -0.335112
v -7.597578 -0.285724 -0.335112
v -7.597578 -0.317541 -0.303295
v -7.597578 -0.349782 0.491787
v -7.597578 -0.472190 0.369379
v -7.597578 0.386950 0.491787
v -7.597578 0.509359 0.369379
v -7.597578 0.509359 -0.367353
v -7.597578 0.386950 -0.489762
v -7.597578 -0.349782 -0.489762
v -7.597578 -0.472190 -0.367353
v -7.286706 -0.317541 0.305321
v -7.286706 -0.285724 0.337138
v -7.286706 0.322892 0.337138
v -7.286706 0.354709 0.305321
v -7.286706 0.354709 -0.303296
v -7.286706 0.322892 -0.335113
v -7.286706 -0.285724 -0.335113
v -7.286706 -0.317541 -0.303296
v 1.882821 1.695791 1.227641
v -1.898034 1.695791 1.228254
v -1.898034 1.695791 -1.226229
v 1.882821 1.695791 -1.225616
vt 0.125000 0.543852
vt 0.375000 0.543892
vt 0.375000 0.706108
vt 0.125000 0.706148
vt 0.375000 0.555437
vt 0.375000 0.694563
vt 0.581108 0.750000
vt 0.418892 0.750000
vt 0.430437 0.750000
vt 0.569563 0.750000
vt 0.625000 0.543892
vt 0.625000 0.706108
vt 0.625000 0.694563
vt 0.625000 0.555437
vt 0.569563 0.500000
vt 0.559587 0.565413
vt 0.430437 0.500000
vt 0.440413 0.565413
vt 0.559587 0.684587
vt 0.440413 0.684587
vt 0.125000 0.500000
vt 0.375000 0.500000
vt 0.625000 0.750000
vt 0.625000 1.000000
vt 0.581148 1.000000
vt 0.375000 0.750000
vt 0.125000 0.750000
vt 0.625000 0.250000
vt 0.625000 0.500000
vt 0.581108 0.500000
vt 0.581148 0.250000
vt 0.418892 0.500000
vt 0.581108 0.750000
vt 0.418892 0.750000
vt 0.581148 1.000000
vt 0.418852 1.000000
vt 0.418852 1.000000
vt 0.581148 0.250000
vt 0.418852 0.250000
vt 0.418852 0.250000
vt 0.581108 0.500000
vt 0.418892 0.500000
vt 0.418892 0.750000
vt 0.581108 0.750000
vt 0.581148 1.000000
vt 0.418852 1.000000
vt 0.418852 0.250000
vt 0.581148 0.250000
vt 0.581108 0.500000
vt 0.418892 0.500000
vt 0.418852 0.000000
vt 0.418852 0.000000
vt 0.375000 0.043852
vt 0.375000 0.043852
vt 0.581148 0.000000
vt 0.581148 0.000000
vt 0.625000 0.043852
vt 0.625000 0.043852
vt 0.625000 0.206148
vt 0.625000 0.206148
vt 0.581148 0.250000
vt 0.418852 0.250000
vt 0.375000 0.206148
vt 0.375000 0.206148
vt 0.434459 0.037680
vt 0.412680 0.059459
vt 0.565541 0.037680
vt 0.587320 0.059459
vt 0.587320 0.190541
vt 0.565541 0.212320
vt 0.434459 0.212320
vt 0.412680 0.190541
vt 0.434459 0.037680
vt 0.412680 0.059459
vt 0.565541 0.037680
vt 0.587320 0.059459
vt 0.587320 0.190541
vt 0.565541 0.212320
vt 0.434459 0.212320
vt 0.412680 0.190541
vt 0.445856 0.065195
vt 0.440195 0.070856
vt 0.554144 0.065195
vt 0.559804 0.070856
vt 0.559805 0.179144
vt 0.554144 0.184805
vt 0.445856 0.184805
vt 0.440195 0.179144
vt 0.440195 0.070856
vt 0.445856 0.065195
vt 0.554144 0.065195
vt 0.559804 0.070856
vt 0.559805 0.179144
vt 0.554144 0.184805
vt 0.445856 0.184805
vt 0.440195 0.179144
vn 0.0000 -1.0000 0.0000
vn 0.1755 -0.9845 0.0000
vn 0.3208 -0.0038 0.9471
vn 0.1697 0.9855 0.0000
vn 0.7115 0.4877 -0.5059
vn 0.7156 -0.4939 -0.4939
vn 0.7156 0.4939 0.4939
vn 0.7156 -0.4939 0.4939
vn 0.0001 -0.8274 -0.5615
vn 0.0001 0.8274 0.5615
vn 0.0001 -0.8274 0.5615
vn 0.0001 0.8274 -0.5615
vn 0.7577 -0.0069 -0.6525
vn 0.7632 -0.0054 0.6462
vn 0.7632 0.6462 -0.0000
vn 0.7632 -0.6462 0.0000
vn 0.3893 -0.7055 -0.5922
vn 0.3893 -0.7055 0.5922
vn 0.3849 0.7064 0.5940
vn 0.3842 0.7004 -0.6015
vn 0.3262 0.0000 -0.9453
vn 0.3027 0.0000 0.9531
vn 0.0000 0.3364 0.9417
vn -0.4060 0.0000 -0.9139
vn 0.0000 -0.3364 0.9417
vn -0.4298 0.0000 0.9029
vn 0.0000 0.3574 -0.9339
vn 0.3222 0.0000 -0.9467
vn 0.0000 -0.3574 -0.9339
vn 0.0000 0.0000 1.0000
vn 0.4041 0.0000 0.9147
vn 0.0000 0.9956 0.0941
vn -0.6846 0.0000 -0.7289
vn 0.0000 -0.9970 0.0768
vn 0.0000 0.0000 -1.0000
vn -0.6730 0.0000 0.7396
vn 0.0000 0.9954 -0.0960
vn 0.3955 0.0000 -0.9185
vn 0.0000 -0.9969 -0.0784
vn -0.2775 -0.7680 0.5773
vn -0.2560 0.0000 0.9667
vn -0.2775 0.7680 0.5773
vn -0.2171 0.9761 0.0000
vn -0.2775 0.7680 -0.5773
vn -0.2560 0.0000 -0.9667
vn -0.2775 -0.7680 -0.5773
vn -0.2171 -0.9761 0.0000
vn -1.0000 0.0000 0.0000
vn 0.1853 -0.6949 0.6949
vn 0.1506 0.0000 0.9886
vn 0.1853 0.6949 0.6949
vn 0.1506 0.9886 0.0000
vn 0.1853 0.6949 -0.6949
vn 0.1506 0.0000 -0.9886
vn 0.1853 -0.6949 -0.6949
vn 0.1506 -0.9886 0.0000
vn 0.0000 1.0000 0.0000
vn 1.0000 -0.0067 0.0000
vn -0.0000 0.7071 -0.7071
vn -0.0000 -0.7071 -0.7071
vn 0.0000 -0.7071 0.7071
vn 0.0000 0.7071 0.7071
usemtl main
s off
f 17/1/1 11/2/1 13/3/1 19/4/1
f 13/3/2 11/2/2 26/5/2 31/6/2
f 12/7/3 14/8/3 30/9/3 27/10/3
f 84/11/4 81/12/4 29/13/4 22/14/4
f 21/15/5 22/14/5 23/16/5
f 24/17/6 25/18/6 26/5/6
f 27/10/7 28/19/7 29/13/7
f 30/9/8 31/6/8 32/20/8
f 11/2/9 17/1/9 16/21/9 10/22/9
f 81/23/10 82/24/10 18/25/10 12/7/10
f 19/4/11 13/3/11 14/26/11 20/27/11
f 83/28/12 84/29/12 9/30/12 15/31/12
f 23/16/13 25/18/13 24/17/13 21/15/13
f 27/10/14 30/9/14 32/20/14 28/19/14
f 22/14/15 29/13/15 28/19/15 23/16/15
f 31/6/16 26/5/16 25/18/16 32/20/16
f 10/32/17 24/17/17 26/5/17 11/2/17
f 30/9/18 14/8/18 13/3/18 31/6/18
f 12/7/19 27/10/19 29/13/19 81/12/19
f 21/15/20 9/30/20 84/11/20 22/14/20
f 10/32/21 9/30/21 21/15/21 24/17/21
f 12/7/22 7/33/22 8/34/22 14/8/22
f 18/25/23 6/35/23 7/33/23 12/7/23
f 20/36/24 5/37/24 6/35/24 18/25/24
f 14/8/25 8/34/25 5/37/25 20/36/25
f 15/31/26 3/38/26 4/39/26 16/40/26
f 9/30/27 2/41/27 3/38/27 15/31/27
f 10/32/28 1/42/28 2/41/28 9/30/28
f 16/40/29 4/39/29 1/42/29 10/32/29
f 33/43/30 34/44/30 35/45/30 36/46/30
f 7/33/31 34/44/31 33/43/31 8/34/31
f 6/35/32 35/45/32 34/44/32 7/33/32
f 5/37/33 36/46/33 35/45/33 6/35/33
f 8/34/34 33/43/34 36/46/34 5/37/34
f 37/47/35 38/48/35 39/49/35 40/50/35
f 3/38/36 38/48/36 37/47/36 4/39/36
f 2/41/37 39/49/37 38/48/37 3/38/37
f 1/42/38 40/50/38 39/49/38 2/41/38
f 4/39/39 37/47/39 40/50/39 1/42/39
f 20/51/40 49/52/40 50/53/40 19/54/40
f 18/55/41 51/56/41 49/52/41 20/51/41
f 82/57/42 52/58/42 51/56/42 18/55/42
f 83/59/43 53/60/43 52/58/43 82/57/43
f 15/31/44 54/61/44 53/60/44 83/59/44
f 16/40/45 55/62/45 54/61/45 15/31/45
f 17/63/46 56/64/46 55/62/46 16/40/46
f 19/54/47 50/53/47 56/64/47 17/63/47
f 42/65/48 41/66/48 50/53/48 49/52/48
f 43/67/48 42/65/48 49/52/48 51/56/48
f 44/68/48 43/67/48 51/56/48 52/58/48
f 45/69/48 44/68/48 52/58/48 53/60/48
f 46/70/48 45/69/48 53/60/48 54/61/48
f 47/71/48 46/70/48 54/61/48 55/62/48
f 48/72/48 47/71/48 55/62/48 56/64/48
f 41/66/48 48/72/48 56/64/48 50/53/48
f 42/65/49 65/73/49 66/74/49 41/66/49
f 43/67/50 67/75/50 65/73/50 42/65/50
f 44/68/51 68/76/51 67/75/51 43/67/51
f 45/69/52 69/77/52 68/76/52 44/68/52
f 46/70/53 70/78/53 69/77/53 45/69/53
f 47/71/54 71/79/54 70/78/54 46/70/54
f 48/72/55 72/80/55 71/79/55 47/71/55
f 41/66/56 66/74/56 72/80/56 48/72/56
f 58/81/48 57/82/48 66/74/48 65/73/48
f 59/83/48 58/81/48 65/73/48 67/75/48
f 60/84/48 59/83/48 67/75/48 68/76/48
f 61/85/48 60/84/48 68/76/48 69/77/48
f 62/86/48 61/85/48 69/77/48 70/78/48
f 63/87/48 62/86/48 70/78/48 71/79/48
f 64/88/48 63/87/48 71/79/48 72/80/48
f 57/82/48 64/88/48 72/80/48 66/74/48
f 81/12/57 84/11/57 83/28/57 82/57/57
usemtl glow
f 25/18/58 23/16/58 28/19/58 32/20/58
f 73/89/48 74/90/48 75/91/48 76/92/48 77/93/48 78/94/48 79/95/48 80/96/48
f 58/81/59 74/90/59 73/89/59 57/82/59
f 59/83/35 75/91/35 74/90/35 58/81/35
f 60/84/60 76/92/60 75/91/60 59/83/60
f 61/85/1 77/93/1 76/92/1 60/84/1
f 62/86/61 78/94/61 77/93/61 61/85/61
f 63/87/30 79/95/30 78/94/30 62/86/30
f 64/88/62 80/96/62 79/95/62 63/87/62
f 57/82/57 73/89/57 80/96/57 64/88/57
