# Blender v2.90.1 OBJ File: 'tower_pivot.blend'
# www.blender.org
mtllib tower_pivot.mtl
o Cube.001
v -2.363715 -0.007221 2.363715
v -2.056370 1.138301 1.093163
v -2.363715 -0.007221 -2.363715
v -2.056370 1.138301 -1.122783
v 2.363715 -0.007221 2.363715
v 2.056370 1.138301 1.093163
v 2.363715 -0.007221 -2.363715
v 2.056370 1.138301 -1.122783
v -2.363715 -0.007221 -3.635820
v -2.056370 1.138301 -3.163068
v 2.056370 1.138301 -3.163068
v 2.363715 -0.007221 -3.635820
v 2.363715 -0.007221 3.635820
v 2.056370 1.138301 3.163068
v -2.056370 1.138301 3.163068
v -2.363715 -0.007221 3.635820
v 0.676049 3.460437 -1.068983
v 0.676049 3.460437 -1.849313
v -0.676049 3.460437 -1.849313
v -0.676049 3.460437 -1.068983
v -0.676049 3.460437 1.039363
v -0.676049 3.460437 1.849313
v 0.676049 3.460437 1.849313
v 0.676049 3.460437 1.039363
v -3.541321 -0.007221 2.363715
v -3.080856 1.138301 2.056370
v -3.080856 1.138301 -2.056370
v -3.541321 -0.007221 -2.363715
v 3.541321 -0.007221 -2.363715
v 3.080856 1.138301 -2.056370
v 3.080856 1.138301 2.056370
v 3.541321 -0.007221 2.363715
vt 0.625000 1.000000
vt 0.625000 1.000000
vt 0.625000 0.000000
vt 0.625000 0.500000
vt 0.625000 0.500000
vt 0.625000 0.500000
vt 0.625000 0.500000
vt 0.625000 0.250000
vt 0.625000 0.250000
vt 0.625000 0.250000
vt 0.625000 0.250000
vt 0.625000 0.250000
vt 0.125000 0.500000
vt 0.375000 0.500000
vt 0.375000 0.750000
vt 0.125000 0.750000
vt 0.875000 0.500000
vt 0.875000 0.750000
vt 0.625000 0.750000
vt 0.375000 0.250000
vt 0.375000 0.500000
vt 0.375000 0.250000
vt 0.375000 0.250000
vt 0.375000 1.000000
vt 0.375000 0.000000
vt 0.375000 1.000000
vt 0.375000 0.750000
vt 0.375000 0.750000
vt 0.625000 0.750000
vt 0.375000 0.500000
vt 0.625000 0.500000
vt 0.625000 1.000000
vt 0.625000 1.000000
vt 0.625000 0.750000
vt 0.625000 0.750000
vt 0.625000 0.000000
vt 0.625000 0.750000
vt 0.375000 0.000000
vn 0.0000 1.0000 0.0000
vn 0.8596 0.5110 0.0000
vn 0.0000 -1.0000 0.0000
vn 0.0000 0.3815 -0.9244
vn 0.0000 0.3815 0.9244
vn -0.9278 0.3730 0.0000
vn 0.6623 0.4307 -0.6131
vn 0.0000 0.4924 -0.8704
vn -0.8596 0.5110 0.0000
vn 0.0000 -0.0232 0.9997
vn 0.0000 0.4924 0.8704
vn 0.0000 -0.0232 -0.9997
vn 0.6623 0.4307 0.6131
vn 0.9278 0.3730 0.0000
vn -0.6623 0.4307 0.6131
vn -0.6623 0.4307 -0.6131
usemtl None
s off
f 15/1/1 2/2/1 26/3/1
f 11/4/2 18/5/2 17/6/2 8/7/2
f 10/8/1 27/9/1 4/10/1
f 17/6/1 18/5/1 19/11/1 20/12/1
f 3/13/3 7/14/3 5/15/3 1/16/3
f 8/7/1 4/17/1 2/18/1 6/19/1
f 9/20/4 10/8/4 11/4/4 12/21/4
f 28/22/3 9/20/3 3/23/3
f 16/24/3 25/25/3 1/26/3
f 5/15/3 32/27/3 13/28/3
f 3/23/3 9/20/3 12/21/3 7/14/3
f 13/28/5 14/29/5 15/1/5 16/24/5
f 7/14/3 12/21/3 29/30/3
f 25/25/6 26/3/6 27/9/6 28/22/6
f 12/21/7 11/4/7 30/31/7 29/30/7
f 5/15/3 13/28/3 16/24/3 1/26/3
f 10/8/8 19/11/8 18/5/8 11/4/8
f 4/10/9 20/12/9 19/11/9 10/8/9
f 8/7/10 17/6/10 20/12/10 4/10/10
f 21/32/1 22/33/1 23/34/1 24/35/1
f 15/1/9 22/33/9 21/32/9 2/2/9
f 14/29/11 23/34/11 22/33/11 15/1/11
f 6/19/2 24/35/2 23/34/2 14/29/2
f 2/2/12 21/32/12 24/35/12 6/19/12
f 4/10/1 27/9/1 26/3/1 2/36/1
f 14/29/13 13/28/13 32/27/13 31/37/13
f 1/38/3 25/25/3 28/22/3 3/23/3
f 29/30/14 30/31/14 31/37/14 32/27/14
f 26/3/15 25/25/15 16/24/15 15/1/15
f 6/19/1 31/37/1 30/31/1 8/7/1
f 28/22/16 27/9/16 10/8/16 9/20/16
f 7/14/3 29/30/3 32/27/3 5/15/3
f 14/29/1 31/37/1 6/19/1
f 11/4/1 8/7/1 30/31/1
