# Blender v2.90.1 OBJ File: 'base_ship.blend'
# www.blender.org
mtllib base_ship.mtl
o Cube
v -0.242389 -0.163394 2.618658
v -0.242389 0.145715 2.618658
v 0.242389 0.145715 2.618658
v 0.242389 -0.163394 2.618658
v -0.062540 -0.031148 4.840549
v -0.062540 0.013470 4.840549
v 0.062540 0.013470 4.840549
v 0.062540 -0.031148 4.840549
v 0.265110 0.443696 1.194877
v -0.265110 0.443696 1.194877
v 0.265110 0.443696 -0.420259
v -0.265110 0.443696 -0.420259
v 0.000000 -0.392634 -0.420259
v 0.000000 -0.392634 1.194877
v 0.000000 -0.244511 2.614079
v 0.653949 0.054707 -0.020071
v 0.653949 -0.072386 -0.020071
v 0.653949 0.054707 1.103384
v 0.653949 -0.072386 1.103384
v -0.653949 -0.072386 -0.021416
v -0.653949 -0.072386 1.102039
v -0.653949 0.054707 1.102039
v -0.653949 0.054707 -0.021416
v 0.174462 -0.175480 -1.293106
v -0.174462 -0.175480 -1.293106
v -0.174462 0.157801 -1.293106
v 0.174462 0.157801 -1.293106
v -0.619345 -0.208392 -0.420259
v -0.619345 -0.208392 1.194877
v 0.619345 0.190713 -0.420259
v 0.619345 -0.208392 -0.420259
v -0.619345 0.190713 1.194877
v 0.619345 0.190713 1.194877
v 0.619345 -0.208392 1.194877
v -0.619345 0.190713 -0.420259
v -1.803949 -0.059677 -0.596416
v -1.803949 -0.059677 0.424482
v -1.803949 0.041998 0.424482
v -1.803949 0.041998 -0.596416
v 1.803949 -0.059677 -0.595071
v 1.803949 0.041998 -0.595071
v 1.803949 0.041998 0.412011
v 1.803949 -0.059677 0.412011
v -1.977025 -0.134223 -0.921566
v -1.918949 -0.199480 0.578217
v -1.918949 0.181801 0.578217
v -1.977025 0.116544 -0.921566
v 1.977640 -0.134223 -0.919122
v 1.977640 0.116544 -0.919122
v 1.918949 0.181801 0.567358
v 1.918949 -0.199480 0.567358
v -2.273613 -0.134223 -1.073555
v -2.331688 -0.199480 0.344947
v -2.331688 0.181801 0.344947
v -2.273613 0.116544 -1.073555
v 2.272998 -0.134223 -1.062696
v 2.272998 0.116544 -1.062696
v 2.331688 0.181801 0.333933
v 2.331688 -0.199480 0.333933
v -2.446688 -0.046968 -0.935182
v -2.446688 -0.046968 0.043486
v -2.446688 0.029289 0.043486
v -2.446688 0.029289 -0.935182
v 2.446688 -0.046968 -0.922960
v 2.446688 0.029289 -0.922960
v 2.446688 0.029289 0.028360
v 2.446688 -0.046968 0.028360
v -3.596688 -0.016465 -1.509261
v -3.596688 -0.016465 -0.602986
v -3.596688 -0.001214 -0.602986
v -3.596688 -0.001214 -1.509261
v 3.596688 -0.016465 -1.497039
v 3.596688 -0.001214 -1.497039
v 3.596688 -0.001214 -0.634290
v 3.596688 -0.016465 -0.634290
v 0.227231 -0.228249 -1.293106
v -0.227231 -0.228249 -1.293106
v -0.227231 0.210570 -1.293106
v 0.227231 0.210570 -1.293106
v 0.145156 -0.143802 -1.458992
v -0.145156 -0.143802 -1.458992
v -0.145156 0.126123 -1.458992
v 0.145156 0.126123 -1.458992
v -0.227378 -0.226024 -1.458992
v 0.227378 -0.226024 -1.458992
v -0.227378 0.208345 -1.458992
v 0.227378 0.208345 -1.458992
v 0.145156 -0.143802 -1.368228
v -0.145156 -0.143802 -1.368228
v -0.145156 0.126123 -1.368228
v 0.145156 0.126123 -1.368228
v -1.918949 -0.199480 -0.891805
v -1.918949 0.181801 -0.891805
v 1.918949 0.181801 -0.890592
v 1.918949 -0.199480 -0.890592
v -2.331688 -0.199480 -1.103316
v -2.331688 0.181801 -1.103316
v 2.331688 0.181801 -1.091225
v 2.331688 -0.199480 -1.091225
v -2.021376 -0.134223 -0.835020
v -2.317964 -0.134223 -0.987008
v -2.317964 0.116544 -0.987008
v -2.021376 0.116544 -0.835020
v 2.020156 0.116544 -0.831659
v 2.315514 0.116544 -0.975233
v 2.315514 -0.134223 -0.975233
v 2.020156 -0.134223 -0.831659
vt 0.465386 0.018037
vt 0.465386 0.018037
vt 0.465386 0.231963
vt 0.465386 0.231963
vt 0.534614 0.018037
vt 0.534614 0.018037
vt 0.534614 0.231963
vt 0.534614 0.231963
vt 0.534614 0.518037
vt 0.534614 0.518037
vt 0.465386 0.518037
vt 0.465386 0.518037
vt 0.534614 0.731963
vt 0.534614 0.731963
vt 0.465386 0.731963
vt 0.465386 0.731963
vt 0.465386 0.018037
vt 0.465386 0.018037
vt 0.465386 0.231963
vt 0.465386 0.231963
vt 0.534614 0.018037
vt 0.534614 0.231963
vt 0.534614 0.018037
vt 0.534614 0.231963
vt 0.465386 0.518037
vt 0.534614 0.518037
vt 0.534614 0.731963
vt 0.465386 0.731963
vt 0.534614 0.518037
vt 0.465386 0.518037
vt 0.534614 0.731963
vt 0.465386 0.731963
vt 0.625000 0.000000
vt 0.375000 0.000000
vt 0.375000 0.000000
vt 0.625000 0.000000
vt 0.625000 0.500000
vt 0.625000 0.500000
vt 0.625000 0.500000
vt 0.375000 0.250000
vt 0.625000 0.250000
vt 0.625000 0.250000
vt 0.375000 0.250000
vt 0.625000 0.750000
vt 0.875000 0.750000
vt 0.875000 0.750000
vt 0.625000 0.750000
vt 0.375000 0.500000
vt 0.375000 0.500000
vt 0.375000 0.750000
vt 0.625000 0.750000
vt 0.375000 0.750000
vt 0.375000 0.750000
vt 0.625000 1.000000
vt 0.375000 1.000000
vt 0.375000 0.000000
vt 0.625000 0.000000
vt 0.875000 0.500000
vt 0.875000 0.750000
vt 0.625000 0.750000
vt 0.625000 0.000000
vt 0.625000 0.250000
vt 0.000000 0.000000
vt 0.000000 0.000000
vt 0.000000 0.000000
vt 0.000000 0.000000
vt 0.000000 0.000000
vt 0.375000 0.750000
vt 0.375000 0.500000
vt 0.375000 0.250000
vt 0.375000 0.000000
vt 0.375000 0.750000
vt 0.375000 0.000000
vt 0.000000 0.000000
vt 0.000000 0.000000
vt 0.465386 0.018037
vt 0.465386 0.231963
vt 0.465386 0.018037
vt 0.465386 0.231963
vt 0.534614 0.018037
vt 0.534614 0.231963
vt 0.534614 0.518037
vt 0.465386 0.518037
vt 0.534614 0.731963
vt 0.465386 0.731963
vt 0.534614 0.018037
vt 0.534614 0.231963
vt 0.534614 0.731963
vt 0.534614 0.518037
vt 0.465386 0.731963
vt 0.465386 0.518037
vt 0.346077 0.255434
vt 0.388892 0.464503
vt 0.101494 0.081651
vt 0.538538 0.448412
vt 0.346077 0.255434
vt 0.388892 0.464503
vt 0.101494 0.081651
vt 0.538538 0.448412
vt 0.325963 0.267716
vt 0.391035 0.416280
vt 0.208369 0.173482
vt 0.449634 0.392523
vt 0.477235 0.231963
vt 0.522765 0.231963
vt 0.522765 0.518037
vt 0.477235 0.518037
vt 0.522765 0.231963
vt 0.477235 0.231963
vt 0.477235 0.518037
vt 0.522765 0.518037
vt 0.000000 0.000000
vt 0.000000 0.000000
vt 0.000000 0.000000
vt 0.000000 0.000000
vt 0.391035 0.416280
vt 0.325963 0.267716
vt 0.208369 0.173482
vt 0.449634 0.392523
vt 0.477235 0.231963
vt 0.477235 0.231963
vt 0.522765 0.231963
vt 0.522765 0.231963
vt 0.522765 0.518037
vt 0.522765 0.518037
vt 0.477235 0.518037
vt 0.477235 0.518037
vn -0.0111 -0.9999 0.0000
vn -0.5076 0.0000 0.8616
vn -0.0111 0.9999 0.0000
vn 0.4472 0.0000 -0.8944
vn -0.4472 0.0000 -0.8944
vn 0.0111 0.9999 0.0000
vn 0.5152 0.0000 0.8570
vn 0.0111 -0.9999 0.0000
vn -0.0265 -0.9996 0.0000
vn -1.0000 0.0000 0.0000
vn -0.4900 0.0000 0.8717
vn -0.0265 0.9996 0.0000
vn 0.4466 0.0000 -0.8947
vn 1.0000 0.0000 0.0000
vn -0.4466 0.0000 -0.8947
vn 0.0265 0.9996 0.0000
vn 0.4993 0.0000 0.8665
vn 0.0265 -0.9996 0.0000
vn -0.9667 0.0000 0.2559
vn 0.5648 0.7908 -0.2357
vn -0.9122 0.0000 -0.4098
vn 0.0000 0.9982 0.0594
vn 0.9122 0.0000 -0.4098
vn 0.9667 0.0000 0.2559
vn 0.0000 0.0000 1.0000
vn -0.9967 0.0000 0.0807
vn 0.9967 0.0000 0.0807
vn 0.0000 1.0000 0.0000
vn -0.5812 0.8138 0.0000
vn 0.5812 0.8138 0.0000
vn 0.0000 0.9661 -0.2580
vn -0.5648 0.7908 -0.2357
vn 0.2851 -0.9585 0.0000
vn -0.2851 -0.9585 0.0000
vn 0.2922 -0.9508 0.1033
vn -0.2922 -0.9508 0.1033
vn 0.0000 -0.9954 0.0954
vn 0.3149 -0.9456 0.0818
vn -0.3149 -0.9456 0.0818
vn 0.0000 -0.9827 -0.1851
vn -0.2835 -0.9531 -0.1057
vn 0.2835 -0.9531 -0.1057
vn 0.7723 -0.6353 0.0000
vn -0.7985 -0.6021 0.0000
vn -0.9691 -0.2466 0.0000
vn 0.9963 0.0000 -0.0861
vn -0.9370 0.0000 0.3493
vn 0.9353 0.0000 0.3538
vn -0.9963 0.0000 -0.0864
vn 0.9691 0.2466 0.0000
vn -0.9691 0.2466 0.0000
vn 0.9691 -0.2466 0.0000
vn 0.8008 0.0000 0.5990
vn 0.7723 0.6353 0.0000
vn 0.9319 0.0000 -0.3628
vn -0.9319 0.0000 -0.3627
vn -0.7723 0.6353 0.0000
vn -0.8037 0.0000 0.5950
vn -0.7723 -0.6353 0.0000
vn 0.0000 -1.0000 0.0000
vn -0.4920 0.0000 0.8706
vn 0.4923 0.0000 0.8704
vn -0.9343 0.0000 0.3564
vn -0.7985 0.6021 0.0000
vn -0.8254 0.0000 -0.5646
vn 0.8256 0.0000 -0.5643
vn 0.7985 0.6021 0.0000
vn 0.9359 0.0000 0.3522
vn 0.7985 -0.6021 0.0000
vn 0.0000 0.0000 -1.0000
vn 0.0000 -0.9566 0.2915
vn -0.9527 -0.0000 0.3039
vn 0.0000 0.9566 0.2915
vn 0.9527 0.0000 0.3039
vn 0.4561 0.0000 -0.8899
vn -0.4372 0.0000 -0.8994
vn -0.5720 0.8010 0.1768
vn 0.5720 0.8010 0.1768
vn 0.0000 0.9788 0.2049
vn 0.8899 0.0000 0.4561
vn -0.8899 0.0000 -0.4561
vn -0.8994 0.0000 0.4372
vn 0.8994 0.0000 -0.4372
usemtl secondary
s off
f 21/1/1 37/2/1 36/3/1 20/4/1
f 22/5/2 38/6/2 37/2/2 21/1/2
f 23/7/3 39/8/3 38/6/3 22/5/3
f 20/4/4 36/3/4 39/8/4 23/7/4
f 16/9/5 41/10/5 40/11/5 17/12/5
f 18/13/6 42/14/6 41/10/6 16/9/6
f 19/15/7 43/16/7 42/14/7 18/13/7
f 17/12/8 40/11/8 43/16/8 19/15/8
f 61/17/9 69/18/9 68/19/9 60/20/9
f 68/19/10 69/18/10 70/21/10 71/22/10
f 62/23/11 70/21/11 69/18/11 61/17/11
f 63/24/12 71/22/12 70/21/12 62/23/12
f 60/20/13 68/19/13 71/22/13 63/24/13
f 72/25/14 73/26/14 74/27/14 75/28/14
f 65/29/15 73/26/15 72/25/15 64/30/15
f 66/31/16 74/27/16 73/26/16 65/29/16
f 67/32/17 75/28/17 74/27/17 66/31/17
f 64/30/18 72/25/18 75/28/18 67/32/18
usemtl primary
f 32/33/19 29/34/19 1/35/19 2/36/19
f 30/37/20 79/38/20 11/39/20
f 28/40/21 35/41/21 78/42/21 77/43/21
f 3/44/22 2/45/22 6/46/22 7/47/22
f 30/37/23 31/48/23 76/49/23 79/38/23
f 34/50/24 33/51/24 3/44/24 4/52/24
f 8/53/25 7/47/25 6/54/25 5/55/25
f 2/36/26 1/35/26 5/56/26 6/57/26
f 4/52/27 3/44/27 7/47/27 8/53/27
f 11/39/28 12/58/28 10/59/28 9/60/28
f 35/41/29 32/33/29 10/61/29 12/62/29
f 33/51/30 30/37/30 11/39/30 9/60/30
f 12/63/31 11/64/31 79/65/31 78/66/31
f 35/67/32 12/63/32 78/66/32
f 31/48/33 34/50/33 14/68/33 13/69/33
f 29/34/34 28/40/34 13/70/34 14/71/34
f 34/50/35 4/52/35 15/72/35 14/68/35
f 1/35/36 29/34/36 14/71/36 15/73/36
f 5/55/37 15/74/37 8/53/37
f 8/53/38 15/74/38 4/52/38
f 1/35/39 15/73/39 5/55/39
f 76/49/40 13/75/40 77/43/40
f 77/43/41 13/75/41 28/40/41
f 31/48/42 13/69/42 76/49/42
f 37/2/43 45/76/43 92/77/43 36/3/43
f 53/78/44 61/17/44 60/20/44 96/79/44
f 21/1/45 20/4/45 28/40/45 29/34/45
f 16/9/46 17/12/46 31/48/46 30/37/46
f 22/5/47 21/1/47 29/34/47 32/33/47
f 19/15/48 18/13/48 33/51/48 34/50/48
f 20/4/49 23/7/49 35/41/49 28/40/49
f 18/13/50 16/9/50 30/37/50 33/51/50
f 23/7/51 22/5/51 32/33/51 35/41/51
f 17/12/52 19/15/52 34/50/52 31/48/52
f 38/6/53 46/80/53 45/76/53 37/2/53
f 39/8/54 93/81/54 46/80/54 38/6/54
f 36/3/55 92/77/55 93/81/55 39/8/55
f 41/10/56 94/82/56 95/83/56 40/11/56
f 42/14/57 50/84/57 94/82/57 41/10/57
f 43/16/58 51/85/58 50/84/58 42/14/58
f 40/11/59 95/83/59 51/85/59 43/16/59
f 45/76/60 53/78/60 96/79/60 92/77/60
f 46/80/61 54/86/61 53/78/61 45/76/61
f 93/81/28 97/87/28 54/86/28 46/80/28
f 50/84/28 58/88/28 98/89/28 94/82/28
f 51/85/62 59/90/62 58/88/62 50/84/62
f 95/83/60 99/91/60 59/90/60 51/85/60
f 54/86/63 62/23/63 61/17/63 53/78/63
f 97/87/64 63/24/64 62/23/64 54/86/64
f 96/79/65 60/20/65 63/24/65 97/87/65
f 98/89/66 65/29/66 64/30/66 99/91/66
f 58/88/67 66/31/67 65/29/67 98/89/67
f 59/90/68 67/32/68 66/31/68 58/88/68
f 99/91/69 64/30/69 67/32/69 59/90/69
f 25/92/70 24/93/70 76/49/70 77/43/70
f 26/94/70 25/92/70 77/43/70 78/66/70
f 24/93/70 27/95/70 79/38/70 76/49/70
f 27/95/70 26/94/70 78/66/70 79/38/70
f 25/92/71 84/96/71 85/97/71 24/93/71
f 26/94/72 86/98/72 84/96/72 25/92/72
f 27/95/73 87/99/73 86/98/73 26/94/73
f 24/93/74 85/97/74 87/99/74 27/95/74
f 81/100/70 80/101/70 85/97/70 84/96/70
f 82/102/70 81/100/70 84/96/70 86/98/70
f 83/103/70 82/102/70 86/98/70 87/99/70
f 80/101/70 83/103/70 87/99/70 85/97/70
f 44/104/75 47/105/75 93/81/75 92/77/75
f 49/106/76 48/107/76 95/83/76 94/82/76
f 55/108/75 52/109/75 96/79/75 97/87/75
f 52/109/75 44/104/75 92/77/75 96/79/75
f 47/105/75 55/108/75 97/87/75 93/81/75
f 56/110/76 57/111/76 98/89/76 99/91/76
f 57/111/76 49/106/76 94/82/76 98/89/76
f 48/107/76 56/110/76 99/91/76 95/83/76
usemtl glow
f 10/59/77 32/33/77 2/36/77
f 9/60/78 3/44/78 33/51/78
f 9/112/79 10/113/79 2/114/79 3/115/79
f 88/116/70 89/117/70 90/118/70 91/119/70
f 81/100/28 89/117/28 88/116/28 80/101/28
f 82/102/14 90/118/14 89/117/14 81/100/14
f 83/103/60 91/119/60 90/118/60 82/102/60
f 80/101/10 88/116/10 91/119/10 83/103/10
f 100/120/75 101/121/75 102/122/75 103/123/75
f 52/109/28 101/121/28 100/120/28 44/104/28
f 55/108/80 102/122/80 101/121/80 52/109/80
f 47/105/60 103/123/60 102/122/60 55/108/60
f 44/104/81 100/120/81 103/123/81 47/105/81
f 104/124/76 105/125/76 106/126/76 107/127/76
f 57/111/60 105/125/60 104/124/60 49/106/60
f 56/110/82 106/126/82 105/125/82 57/111/82
f 48/107/28 107/127/28 106/126/28 56/110/28
f 49/106/83 104/124/83 107/127/83 48/107/83
