# Blender v2.90.1 OBJ File: 'ship2.blend'
# www.blender.org
mtllib ship2.mtl
o Cube
v -0.207062 -0.111814 2.618658
v -0.207062 0.103715 2.618658
v 0.207062 0.103715 2.618658
v 0.207062 -0.111814 2.618658
v -0.053425 -0.019605 4.840549
v -0.053425 0.011505 4.840549
v 0.053425 0.011505 4.840549
v 0.053425 -0.019605 4.840549
v 0.226471 0.311485 1.194877
v -0.226471 0.311485 1.194877
v 0.226471 0.311485 -0.420259
v -0.226471 0.311485 -0.420259
v -0.000000 -0.271654 -0.420259
v -0.000000 -0.271654 1.194877
v 0.000000 -0.168374 2.614079
v 0.558638 0.040259 -0.020071
v 0.558638 -0.048358 -0.020071
v 0.558638 0.040259 1.103384
v 0.558638 -0.048358 1.103384
v -0.558638 -0.048358 -0.021416
v -0.558638 -0.048358 1.102039
v -0.558638 0.040259 1.102039
v -0.558638 0.040259 -0.021416
v 0.149035 -0.120241 -1.293106
v -0.149035 -0.120241 -1.293106
v -0.149035 0.112142 -1.293106
v 0.149035 0.112142 -1.293106
v -0.529078 -0.143190 -0.420259
v -0.529078 -0.143190 1.194877
v 0.529078 0.135090 -0.420259
v 0.529078 -0.143190 -0.420259
v -0.529078 0.135090 1.194877
v 0.529078 0.135090 1.194877
v 0.529078 -0.143190 1.194877
v -0.529078 0.135090 -0.420259
v -1.803949 -0.046766 -0.596416
v -1.803949 -0.046766 0.424482
v -1.803949 0.029087 0.424482
v -1.803949 0.029087 -0.596416
v 1.803949 -0.046766 -0.595071
v 1.803949 0.029087 -0.595071
v 1.803949 0.029087 0.412011
v 1.803949 -0.046766 0.412011
v -1.977025 -0.102380 -0.921566
v -1.918949 -0.151064 0.578217
v -1.918949 0.133385 0.578217
v -1.977025 0.084701 -0.921566
v 1.977640 -0.102380 -0.919122
v 1.977640 0.084701 -0.919122
v 1.918949 0.133385 0.567358
v 1.918949 -0.151064 0.567358
v -2.273613 -0.102380 -1.073555
v -2.331688 -0.151064 0.344947
v -2.331688 0.133385 0.344947
v -2.273613 0.084701 -1.073555
v 2.272998 -0.102380 -1.062696
v 2.272998 0.084701 -1.062696
v 2.331688 0.133385 0.333933
v 2.331688 -0.151064 0.333933
v -2.412615 -0.037284 -0.935182
v -2.412615 -0.037284 0.043486
v -2.412615 0.019605 0.043486
v -2.412615 0.019605 -0.935182
v 2.412615 -0.037284 -0.922960
v 2.412615 0.019605 -0.922960
v 2.412615 0.019605 0.028360
v 2.412615 -0.037284 0.028360
v 0.194113 -0.157035 -1.293106
v -0.194113 -0.157035 -1.293106
v -0.194113 0.148935 -1.293106
v 0.194113 0.148935 -1.293106
v 0.124000 -0.098154 -1.458992
v -0.124000 -0.098154 -1.458992
v -0.124000 0.090054 -1.458992
v 0.124000 0.090054 -1.458992
v -0.194238 -0.155484 -1.458992
v 0.194238 -0.155484 -1.458992
v -0.194239 0.147384 -1.458992
v 0.194238 0.147384 -1.458992
v 0.124000 -0.098154 -1.368228
v -0.124000 -0.098154 -1.368228
v -0.124000 0.090054 -1.368228
v 0.124000 0.090054 -1.368228
v -1.918949 -0.151064 -0.891805
v -1.918949 0.133385 -0.891805
v 1.918949 0.133385 -0.890592
v 1.918949 -0.151064 -0.890592
v -2.331688 -0.151064 -1.103316
v -2.331688 0.133385 -1.103316
v 2.331688 0.133385 -1.091225
v 2.331688 -0.151064 -1.091225
v -2.021376 -0.102380 -0.835020
v -2.317964 -0.102380 -0.987008
v -2.317964 0.084701 -0.987008
v -2.021376 0.084701 -0.835020
v 2.020156 0.084701 -0.831659
v 2.315514 0.084701 -0.975233
v 2.315514 -0.102380 -0.975233
v 2.020156 -0.102380 -0.831659
vt 0.465386 0.018037
vt 0.465386 0.018037
vt 0.465386 0.231963
vt 0.465386 0.231963
vt 0.534614 0.018037
vt 0.534614 0.018037
vt 0.534614 0.231963
vt 0.534614 0.231963
vt 0.534614 0.518037
vt 0.534614 0.518037
vt 0.465386 0.518037
vt 0.465386 0.518037
vt 0.534614 0.731963
vt 0.534614 0.731963
vt 0.465386 0.731963
vt 0.465386 0.731963
vt 0.625000 0.000000
vt 0.375000 0.000000
vt 0.375000 0.000000
vt 0.625000 0.000000
vt 0.625000 0.500000
vt 0.625000 0.500000
vt 0.625000 0.500000
vt 0.375000 0.250000
vt 0.625000 0.250000
vt 0.625000 0.250000
vt 0.375000 0.250000
vt 0.625000 0.750000
vt 0.875000 0.750000
vt 0.875000 0.750000
vt 0.625000 0.750000
vt 0.375000 0.500000
vt 0.375000 0.500000
vt 0.375000 0.750000
vt 0.625000 0.750000
vt 0.375000 0.750000
vt 0.375000 0.750000
vt 0.625000 1.000000
vt 0.375000 1.000000
vt 0.375000 0.000000
vt 0.625000 0.000000
vt 0.875000 0.500000
vt 0.875000 0.750000
vt 0.625000 0.750000
vt 0.625000 0.000000
vt 0.625000 0.250000
vt 0.000000 0.000000
vt 0.000000 0.000000
vt 0.000000 0.000000
vt 0.000000 0.000000
vt 0.000000 0.000000
vt 0.375000 0.750000
vt 0.375000 0.500000
vt 0.375000 0.250000
vt 0.375000 0.000000
vt 0.375000 0.750000
vt 0.375000 0.000000
vt 0.000000 0.000000
vt 0.000000 0.000000
vt 0.465386 0.018037
vt 0.465386 0.231963
vt 0.465386 0.018037
vt 0.465386 0.018037
vt 0.465386 0.231963
vt 0.465386 0.231963
vt 0.534614 0.018037
vt 0.534614 0.231963
vt 0.534614 0.518037
vt 0.465386 0.518037
vt 0.534614 0.731963
vt 0.465386 0.731963
vt 0.534614 0.018037
vt 0.534614 0.231963
vt 0.534614 0.731963
vt 0.534614 0.518037
vt 0.465386 0.731963
vt 0.465386 0.518037
vt 0.534614 0.018037
vt 0.534614 0.231963
vt 0.534614 0.518037
vt 0.465386 0.518037
vt 0.534614 0.731963
vt 0.465386 0.731963
vt 0.346077 0.255434
vt 0.388892 0.464503
vt 0.101494 0.081651
vt 0.538538 0.448412
vt 0.346077 0.255434
vt 0.388892 0.464503
vt 0.101494 0.081651
vt 0.538538 0.448412
vt 0.325963 0.267716
vt 0.391035 0.416280
vt 0.208369 0.173482
vt 0.449634 0.392523
vt 0.477235 0.231963
vt 0.522765 0.231963
vt 0.522765 0.518037
vt 0.477235 0.518037
vt 0.522765 0.231963
vt 0.477235 0.231963
vt 0.477235 0.518037
vt 0.522765 0.518037
vt 0.000000 0.000000
vt 0.000000 0.000000
vt 0.000000 0.000000
vt 0.000000 0.000000
vt 0.391035 0.416280
vt 0.325963 0.267716
vt 0.208369 0.173482
vt 0.449634 0.392523
vt 0.477235 0.231963
vt 0.477235 0.231963
vt 0.522765 0.231963
vt 0.522765 0.231963
vt 0.522765 0.518037
vt 0.522765 0.518037
vt 0.477235 0.518037
vt 0.477235 0.518037
vn -0.0013 -1.0000 0.0000
vn -0.4779 0.0000 0.8784
vn -0.0090 1.0000 0.0000
vn 0.4192 0.0000 -0.9079
vn -0.4192 0.0000 -0.9079
vn 0.0090 1.0000 0.0000
vn 0.4854 0.0000 0.8743
vn 0.0013 -1.0000 0.0000
vn -0.9754 0.0000 0.2206
vn 0.4957 0.8503 -0.1767
vn -0.9336 0.0000 -0.3583
vn 0.0000 0.9991 0.0415
vn 0.9336 0.0000 -0.3583
vn 0.9754 0.0000 0.2206
vn 0.0000 0.0000 1.0000
vn -0.9976 0.0000 0.0690
vn 0.9976 0.0000 0.0690
vn 0.0000 1.0000 0.0000
vn -0.5036 0.8639 0.0000
vn 0.5036 0.8639 0.0000
vn 0.0000 0.9831 -0.1831
vn -0.4957 0.8503 -0.1767
vn 0.2360 -0.9718 0.0000
vn -0.2360 -0.9718 0.0000
vn 0.2427 -0.9673 0.0733
vn -0.2427 -0.9673 0.0733
vn 0.0000 -0.9978 0.0667
vn 0.2619 -0.9634 0.0581
vn -0.2619 -0.9634 0.0581
vn 0.0000 -0.9915 -0.1302
vn -0.2353 -0.9690 -0.0749
vn 0.2353 -0.9690 -0.0749
vn 0.6718 -0.7407 0.0000
vn -0.8149 -0.5796 0.0000
vn -0.9547 -0.2976 0.0000
vn 0.9973 0.0000 -0.0737
vn -0.9529 0.0000 0.3034
vn 0.9516 0.0000 0.3074
vn -0.9973 0.0000 -0.0739
vn 0.9547 0.2976 0.0000
vn -0.9547 0.2976 0.0000
vn 0.9547 -0.2976 0.0000
vn 0.8008 0.0000 0.5990
vn 0.6718 0.7407 0.0000
vn 0.9319 0.0000 -0.3628
vn -0.9319 0.0000 -0.3627
vn -0.6718 0.7407 0.0000
vn -0.8037 0.0000 0.5950
vn -0.6718 -0.7407 0.0000
vn 0.0000 -1.0000 0.0000
vn -0.4920 0.0000 0.8706
vn 0.4923 0.0000 0.8704
vn -0.9658 0.0000 0.2593
vn -0.8149 0.5796 0.0000
vn -0.9011 0.0000 -0.4337
vn 0.9012 0.0000 -0.4334
vn 0.8149 0.5796 0.0000
vn 0.9667 0.0000 0.2560
vn 0.8149 -0.5796 0.0000
vn -1.0000 0.0000 0.0000
vn 1.0000 0.0000 0.0000
vn 0.0000 0.0000 -1.0000
vn 0.0000 -0.9782 0.2078
vn -0.9648 -0.0000 0.2629
vn 0.0000 0.9782 0.2078
vn 0.9648 0.0000 0.2629
vn 0.4561 0.0000 -0.8899
vn -0.4372 0.0000 -0.8994
vn -0.4992 0.8564 0.1318
vn 0.4992 0.8564 0.1318
vn 0.0000 0.9895 0.1444
vn 0.8899 0.0000 0.4561
vn -0.8899 0.0000 -0.4561
vn -0.8994 0.0000 0.4372
vn 0.8994 0.0000 -0.4372
usemtl secondary
s off
f 21/1/1 37/2/1 36/3/1 20/4/1
f 22/5/2 38/6/2 37/2/2 21/1/2
f 23/7/3 39/8/3 38/6/3 22/5/3
f 20/4/4 36/3/4 39/8/4 23/7/4
f 16/9/5 41/10/5 40/11/5 17/12/5
f 18/13/6 42/14/6 41/10/6 16/9/6
f 19/15/7 43/16/7 42/14/7 18/13/7
f 17/12/8 40/11/8 43/16/8 19/15/8
usemtl primary
f 32/17/9 29/18/9 1/19/9 2/20/9
f 30/21/10 71/22/10 11/23/10
f 28/24/11 35/25/11 70/26/11 69/27/11
f 3/28/12 2/29/12 6/30/12 7/31/12
f 30/21/13 31/32/13 68/33/13 71/22/13
f 34/34/14 33/35/14 3/28/14 4/36/14
f 8/37/15 7/31/15 6/38/15 5/39/15
f 2/20/16 1/19/16 5/40/16 6/41/16
f 4/36/17 3/28/17 7/31/17 8/37/17
f 11/23/18 12/42/18 10/43/18 9/44/18
f 35/25/19 32/17/19 10/45/19 12/46/19
f 33/35/20 30/21/20 11/23/20 9/44/20
f 12/47/21 11/48/21 71/49/21 70/50/21
f 35/51/22 12/47/22 70/50/22
f 31/32/23 34/34/23 14/52/23 13/53/23
f 29/18/24 28/24/24 13/54/24 14/55/24
f 34/34/25 4/36/25 15/56/25 14/52/25
f 1/19/26 29/18/26 14/55/26 15/57/26
f 5/39/27 15/58/27 8/37/27
f 8/37/28 15/58/28 4/36/28
f 1/19/29 15/57/29 5/39/29
f 68/33/30 13/59/30 69/27/30
f 69/27/31 13/59/31 28/24/31
f 31/32/32 13/53/32 68/33/32
f 37/2/33 45/60/33 84/61/33 36/3/33
f 53/62/34 61/63/34 60/64/34 88/65/34
f 21/1/35 20/4/35 28/24/35 29/18/35
f 16/9/36 17/12/36 31/32/36 30/21/36
f 22/5/37 21/1/37 29/18/37 32/17/37
f 19/15/38 18/13/38 33/35/38 34/34/38
f 20/4/39 23/7/39 35/25/39 28/24/39
f 18/13/40 16/9/40 30/21/40 33/35/40
f 23/7/41 22/5/41 32/17/41 35/25/41
f 17/12/42 19/15/42 34/34/42 31/32/42
f 38/6/43 46/66/43 45/60/43 37/2/43
f 39/8/44 85/67/44 46/66/44 38/6/44
f 36/3/45 84/61/45 85/67/45 39/8/45
f 41/10/46 86/68/46 87/69/46 40/11/46
f 42/14/47 50/70/47 86/68/47 41/10/47
f 43/16/48 51/71/48 50/70/48 42/14/48
f 40/11/49 87/69/49 51/71/49 43/16/49
f 45/60/50 53/62/50 88/65/50 84/61/50
f 46/66/51 54/72/51 53/62/51 45/60/51
f 85/67/18 89/73/18 54/72/18 46/66/18
f 50/70/18 58/74/18 90/75/18 86/68/18
f 51/71/52 59/76/52 58/74/52 50/70/52
f 87/69/50 91/77/50 59/76/50 51/71/50
f 54/72/53 62/78/53 61/63/53 53/62/53
f 89/73/54 63/79/54 62/78/54 54/72/54
f 88/65/55 60/64/55 63/79/55 89/73/55
f 90/75/56 65/80/56 64/81/56 91/77/56
f 58/74/57 66/82/57 65/80/57 90/75/57
f 59/76/58 67/83/58 66/82/58 58/74/58
f 91/77/59 64/81/59 67/83/59 59/76/59
f 61/63/60 62/78/60 63/79/60 60/64/60
f 65/80/61 66/82/61 67/83/61 64/81/61
f 25/84/62 24/85/62 68/33/62 69/27/62
f 26/86/62 25/84/62 69/27/62 70/50/62
f 24/85/62 27/87/62 71/22/62 68/33/62
f 27/87/62 26/86/62 70/50/62 71/22/62
f 25/84/63 76/88/63 77/89/63 24/85/63
f 26/86/64 78/90/64 76/88/64 25/84/64
f 27/87/65 79/91/65 78/90/65 26/86/65
f 24/85/66 77/89/66 79/91/66 27/87/66
f 73/92/62 72/93/62 77/89/62 76/88/62
f 74/94/62 73/92/62 76/88/62 78/90/62
f 75/95/62 74/94/62 78/90/62 79/91/62
f 72/93/62 75/95/62 79/91/62 77/89/62
f 44/96/67 47/97/67 85/67/67 84/61/67
f 49/98/68 48/99/68 87/69/68 86/68/68
f 55/100/67 52/101/67 88/65/67 89/73/67
f 52/101/67 44/96/67 84/61/67 88/65/67
f 47/97/67 55/100/67 89/73/67 85/67/67
f 56/102/68 57/103/68 90/75/68 91/77/68
f 57/103/68 49/98/68 86/68/68 90/75/68
f 48/99/68 56/102/68 91/77/68 87/69/68
usemtl glow
f 10/43/69 32/17/69 2/20/69
f 9/44/70 3/28/70 33/35/70
f 9/104/71 10/105/71 2/106/71 3/107/71
f 80/108/62 81/109/62 82/110/62 83/111/62
f 73/92/18 81/109/18 80/108/18 72/93/18
f 74/94/61 82/110/61 81/109/61 73/92/61
f 75/95/50 83/111/50 82/110/50 74/94/50
f 72/93/60 80/108/60 83/111/60 75/95/60
f 92/112/67 93/113/67 94/114/67 95/115/67
f 52/101/18 93/113/18 92/112/18 44/96/18
f 55/100/72 94/114/72 93/113/72 52/101/72
f 47/97/50 95/115/50 94/114/50 55/100/50
f 44/96/73 92/112/73 95/115/73 47/97/73
f 96/116/68 97/117/68 98/118/68 99/119/68
f 57/103/50 97/117/50 96/116/50 49/98/50
f 56/102/74 98/118/74 97/117/74 57/103/74
f 48/99/18 99/119/18 98/118/18 56/102/18
f 49/98/75 96/116/75 99/119/75 48/99/75
