# Blender v2.90.1 OBJ File: 'ship3.blend'
# www.blender.org
mtllib ship3.mtl
o Cube
v -0.281332 -0.189543 3.058738
v -0.281332 0.169244 3.058738
v 0.281356 0.169244 3.058738
v 0.281356 -0.189543 3.058738
v -0.072579 -0.036044 4.838508
v -0.072579 0.015745 4.838508
v 0.072603 0.015745 4.838508
v 0.072603 -0.036044 4.838508
v 0.094296 0.515115 1.005396
v -0.094272 0.515115 1.005396
v 0.094296 0.515115 -0.194606
v -0.094272 0.515115 -0.194606
v 0.000012 -0.455625 -0.468576
v 0.000012 -0.455625 1.406135
v 0.000012 -0.283697 3.053424
v 0.759060 0.063610 -0.004073
v 0.759060 -0.083909 -0.004073
v 0.759060 0.063610 1.299938
v 0.759060 -0.083909 1.299938
v -0.759037 -0.083909 -0.005634
v -0.759037 -0.083909 1.298377
v -0.759037 0.063610 1.298377
v -0.759037 0.063610 -0.005634
v 0.202512 -0.203572 -1.481702
v -0.202489 -0.203572 -1.481702
v -0.202489 0.183273 -1.481702
v 0.202512 0.183273 -1.481702
v -0.718871 -0.241773 -0.468576
v -0.718871 -0.241773 1.406135
v 0.718895 0.221474 -0.468576
v 0.718895 -0.241773 -0.468576
v -0.718871 0.221474 1.406135
v 0.718895 0.221474 1.406135
v 0.718895 -0.241773 1.406135
v -0.718871 0.221474 -0.468576
v -3.093858 -0.069157 -1.173108
v -3.093858 -0.069157 0.011863
v -3.093858 0.048858 0.011863
v -3.093858 0.048858 -1.173108
v 3.093882 -0.069157 -1.171547
v 3.093882 0.048858 -1.171547
v 3.093882 0.048858 -0.002612
v 3.093882 -0.069157 -0.002612
v -3.294749 -0.155683 -1.550514
v -3.227340 -0.231428 0.190306
v -3.227340 0.211130 0.190306
v -3.294749 0.135385 -1.550514
v 3.295487 -0.155683 -1.547678
v 3.295487 0.135385 -1.547678
v 3.227364 0.211130 0.177701
v 3.227364 -0.231428 0.177701
v -3.639003 -0.155683 -1.726930
v -3.706413 -0.231428 -0.080454
v -3.706413 0.211130 -0.080454
v -3.639003 0.135385 -1.726930
v 3.638314 -0.155683 -1.714326
v 3.638314 0.135385 -1.714326
v 3.706436 0.211130 -0.093239
v 3.706436 -0.231428 -0.093239
v -3.781859 -0.054405 -1.566319
v -3.781859 -0.054405 -0.430364
v -3.781859 0.034106 -0.430364
v -3.781859 0.034106 -1.566319
v 3.781883 -0.054405 -1.552132
v 3.781883 0.034106 -1.552132
v 3.781883 0.034106 -0.447921
v 3.781883 -0.054405 -0.447921
v 0.263762 -0.264821 -1.481702
v -0.263738 -0.264821 -1.481702
v -0.263738 0.244523 -1.481702
v 0.263762 0.244523 -1.481702
v 0.168497 -0.166803 -1.674248
v -0.168473 -0.166803 -1.674248
v -0.168473 0.146504 -1.674248
v 0.168497 0.146504 -1.674248
v -0.263909 -0.262239 -1.674248
v 0.263933 -0.262239 -1.674248
v -0.263909 0.241940 -1.674248
v 0.263933 0.241940 -1.674248
v 0.168497 -0.166803 -1.568897
v -0.168473 -0.166803 -1.568897
v -0.168473 0.146504 -1.568897
v 0.168497 0.146504 -1.568897
v -3.227340 -0.231428 -1.515970
v -3.227340 0.211130 -1.515970
v 3.227364 0.211130 -1.514563
v 3.227364 -0.231428 -1.514563
v -3.706413 -0.231428 -1.761474
v -3.706413 0.211130 -1.761474
v 3.706436 0.211130 -1.747441
v 3.706436 -0.231428 -1.747441
v -3.346229 -0.155683 -1.450059
v -3.690483 -0.155683 -1.626474
v -3.690483 0.135385 -1.626474
v -3.346229 0.135385 -1.450059
v 3.344836 0.135385 -1.446158
v 3.687662 0.135385 -1.612807
v 3.687662 -0.155683 -1.612807
v 3.344836 -0.155683 -1.446158
v 0.307729 0.515115 1.406135
v -0.307705 0.515115 1.406135
v 0.307729 0.515115 -0.468576
v -0.307705 0.515115 -0.468576
v 0.094296 0.915115 -0.609849
v -0.094272 0.915115 -0.609849
v -0.094272 0.915115 0.590154
v 0.094296 0.915115 0.590154
v 0.200011 1.001202 -0.700047
v -0.199987 1.001202 -0.700047
v -0.199987 1.001202 0.499956
v 0.200011 1.001202 0.499956
vt 0.465386 0.018037
vt 0.465386 0.018037
vt 0.465386 0.231963
vt 0.465386 0.231963
vt 0.534614 0.018037
vt 0.534614 0.018037
vt 0.534614 0.231963
vt 0.534614 0.231963
vt 0.534614 0.518037
vt 0.534614 0.518037
vt 0.465386 0.518037
vt 0.465386 0.518037
vt 0.534614 0.731963
vt 0.534614 0.731963
vt 0.465386 0.731963
vt 0.465386 0.731963
vt 0.625000 0.000000
vt 0.375000 0.000000
vt 0.375000 0.000000
vt 0.625000 0.000000
vt 0.625000 0.500000
vt 0.625000 0.500000
vt 0.625000 0.500000
vt 0.375000 0.250000
vt 0.625000 0.250000
vt 0.625000 0.250000
vt 0.375000 0.250000
vt 0.625000 0.750000
vt 0.875000 0.750000
vt 0.875000 0.750000
vt 0.625000 0.750000
vt 0.375000 0.500000
vt 0.375000 0.500000
vt 0.375000 0.750000
vt 0.625000 0.750000
vt 0.375000 0.750000
vt 0.375000 0.750000
vt 0.625000 1.000000
vt 0.375000 1.000000
vt 0.375000 0.000000
vt 0.625000 0.000000
vt 0.711700 0.528462
vt 0.788300 0.528462
vt 0.788300 0.721538
vt 0.711700 0.721538
vt 0.625000 0.000000
vt 0.625000 0.250000
vt 0.625000 0.750000
vt 0.000000 0.000000
vt 0.000000 0.000000
vt 0.000000 0.000000
vt 0.000000 0.000000
vt 0.000000 0.000000
vt 0.375000 0.750000
vt 0.375000 0.500000
vt 0.375000 0.250000
vt 0.375000 0.000000
vt 0.375000 0.750000
vt 0.375000 0.000000
vt 0.000000 0.000000
vt 0.000000 0.000000
vt 0.465386 0.018037
vt 0.465386 0.231963
vt 0.465386 0.018037
vt 0.465386 0.018037
vt 0.465386 0.231963
vt 0.465386 0.231963
vt 0.534614 0.018037
vt 0.534614 0.231963
vt 0.534614 0.518037
vt 0.465386 0.518037
vt 0.534614 0.731963
vt 0.465386 0.731963
vt 0.534614 0.018037
vt 0.534614 0.231963
vt 0.534614 0.731963
vt 0.534614 0.518037
vt 0.465386 0.731963
vt 0.465386 0.518037
vt 0.534614 0.018037
vt 0.534614 0.231963
vt 0.534614 0.518037
vt 0.465386 0.518037
vt 0.534614 0.731963
vt 0.465386 0.731963
vt 0.346077 0.255434
vt 0.388892 0.464503
vt 0.101494 0.081651
vt 0.538538 0.448412
vt 0.346077 0.255434
vt 0.388892 0.464503
vt 0.101494 0.081651
vt 0.538538 0.448412
vt 0.325963 0.267716
vt 0.391035 0.416280
vt 0.208369 0.173482
vt 0.449634 0.392523
vt 0.477235 0.231963
vt 0.522765 0.231963
vt 0.522765 0.518037
vt 0.477235 0.518037
vt 0.522765 0.231963
vt 0.477235 0.231963
vt 0.477235 0.518037
vt 0.522765 0.518037
vt 0.711700 0.721538
vt 0.788300 0.721538
vt 0.875000 0.750000
vt 0.711700 0.528462
vt 0.788300 0.528462
vt 0.875000 0.500000
vt 0.788300 0.528462
vt 0.711700 0.528462
vt 0.788300 0.721538
vt 0.711700 0.721538
vt 0.000000 0.000000
vt 0.000000 0.000000
vt 0.000000 0.000000
vt 0.000000 0.000000
vt 0.391035 0.416280
vt 0.325963 0.267716
vt 0.208369 0.173482
vt 0.449634 0.392523
vt 0.477235 0.231963
vt 0.477235 0.231963
vt 0.522765 0.231963
vt 0.522765 0.231963
vt 0.522765 0.518037
vt 0.522765 0.518037
vt 0.477235 0.518037
vt 0.477235 0.518037
vn -0.0063 -1.0000 0.0000
vn -0.4826 0.0000 0.8758
vn -0.0063 1.0000 0.0000
vn 0.4472 0.0000 -0.8944
vn -0.4472 0.0000 -0.8944
vn 0.0063 1.0000 0.0000
vn 0.4872 0.0000 0.8733
vn 0.0063 -1.0000 0.0000
vn -0.9667 0.0000 0.2559
vn 0.5648 0.7908 -0.2357
vn -0.9122 -0.0000 -0.4098
vn 0.0000 0.9963 0.0859
vn 0.9122 0.0000 -0.4098
vn 0.9667 0.0000 0.2559
vn 0.0000 0.0000 1.0000
vn -0.9932 0.0000 0.1165
vn 0.9932 0.0000 0.1165
vn 0.0000 1.0000 0.0000
vn -0.5812 0.8138 0.0000
vn 0.5812 0.8138 0.0000
vn 0.0000 0.9661 -0.2580
vn -0.5648 0.7908 -0.2357
vn 0.2851 -0.9585 0.0000
vn -0.2851 -0.9585 0.0000
vn 0.2922 -0.9508 0.1033
vn -0.2922 -0.9508 0.1033
vn 0.0000 -0.9905 0.1374
vn 0.3131 -0.9423 0.1180
vn -0.3131 -0.9423 0.1180
vn 0.0000 -0.9827 -0.1851
vn -0.2835 -0.9531 -0.1057
vn 0.2835 -0.9531 -0.1057
vn 0.7723 -0.6353 0.0000
vn -0.9199 -0.3921 0.0000
vn -0.9691 -0.2466 0.0000
vn 0.9963 0.0000 -0.0861
vn -0.9370 0.0000 0.3493
vn 0.9353 0.0000 0.3538
vn -0.9963 0.0000 -0.0864
vn 0.9691 0.2466 0.0000
vn -0.9691 0.2466 0.0000
vn 0.9691 -0.2466 0.0000
vn 0.8008 0.0000 0.5990
vn 0.7723 0.6353 0.0000
vn 0.9319 0.0000 -0.3628
vn -0.9319 0.0000 -0.3627
vn -0.7723 0.6353 0.0000
vn -0.8037 0.0000 0.5950
vn -0.7723 -0.6353 0.0000
vn 0.0000 -1.0000 0.0000
vn -0.4920 0.0000 0.8706
vn 0.4923 0.0000 0.8704
vn -0.9775 0.0000 0.2108
vn -0.9199 0.3921 0.0000
vn -0.9327 0.0000 -0.3606
vn 0.9328 0.0000 -0.3603
vn 0.9199 0.3921 0.0000
vn 0.9781 0.0000 0.2081
vn 0.9199 -0.3921 0.0000
vn -1.0000 0.0000 0.0000
vn 1.0000 0.0000 0.0000
vn 0.0000 0.0000 -1.0000
vn 0.0000 -0.9566 0.2915
vn -0.9527 -0.0000 0.3039
vn 0.0000 0.9566 0.2915
vn 0.9527 0.0000 0.3039
vn 0.4561 0.0000 -0.8899
vn -0.4372 0.0000 -0.8994
vn 0.0000 -0.7202 -0.6938
vn 0.0000 0.7202 0.6938
vn 0.0000 -0.7234 -0.6904
vn -0.6314 -0.7754 0.0000
vn 0.0000 0.7234 0.6904
vn 0.6314 -0.7754 0.0000
vn -0.5720 0.8010 0.1768
vn 0.5720 0.8010 0.1768
vn 0.0000 0.9788 0.2049
vn 0.8899 0.0000 0.4561
vn -0.8899 0.0000 -0.4561
vn -0.8994 0.0000 0.4372
vn 0.8994 0.0000 -0.4372
usemtl secondary
s off
f 21/1/1 37/2/1 36/3/1 20/4/1
f 22/5/2 38/6/2 37/2/2 21/1/2
f 23/7/3 39/8/3 38/6/3 22/5/3
f 20/4/4 36/3/4 39/8/4 23/7/4
f 16/9/5 41/10/5 40/11/5 17/12/5
f 18/13/6 42/14/6 41/10/6 16/9/6
f 19/15/7 43/16/7 42/14/7 18/13/7
f 17/12/8 40/11/8 43/16/8 19/15/8
usemtl primary
f 32/17/9 29/18/9 1/19/9 2/20/9
f 30/21/10 71/22/10 102/23/10
f 28/24/11 35/25/11 70/26/11 69/27/11
f 3/28/12 2/29/12 6/30/12 7/31/12
f 30/21/13 31/32/13 68/33/13 71/22/13
f 34/34/14 33/35/14 3/28/14 4/36/14
f 8/37/15 7/31/15 6/38/15 5/39/15
f 2/20/16 1/19/16 5/40/16 6/41/16
f 4/36/17 3/28/17 7/31/17 8/37/17
f 108/42/18 109/43/18 110/44/18 111/45/18
f 35/25/19 32/17/19 101/46/19 103/47/19
f 33/35/20 30/21/20 102/23/20 100/48/20
f 103/49/21 102/50/21 71/51/21 70/52/21
f 35/53/22 103/49/22 70/52/22
f 31/32/23 34/34/23 14/54/23 13/55/23
f 29/18/24 28/24/24 13/56/24 14/57/24
f 34/34/25 4/36/25 15/58/25 14/54/25
f 1/19/26 29/18/26 14/57/26 15/59/26
f 5/39/27 15/60/27 8/37/27
f 8/37/28 15/60/28 4/36/28
f 1/19/29 15/59/29 5/39/29
f 68/33/30 13/61/30 69/27/30
f 69/27/31 13/61/31 28/24/31
f 31/32/32 13/55/32 68/33/32
f 37/2/33 45/62/33 84/63/33 36/3/33
f 53/64/34 61/65/34 60/66/34 88/67/34
f 21/1/35 20/4/35 28/24/35 29/18/35
f 16/9/36 17/12/36 31/32/36 30/21/36
f 22/5/37 21/1/37 29/18/37 32/17/37
f 19/15/38 18/13/38 33/35/38 34/34/38
f 20/4/39 23/7/39 35/25/39 28/24/39
f 18/13/40 16/9/40 30/21/40 33/35/40
f 23/7/41 22/5/41 32/17/41 35/25/41
f 17/12/42 19/15/42 34/34/42 31/32/42
f 38/6/43 46/68/43 45/62/43 37/2/43
f 39/8/44 85/69/44 46/68/44 38/6/44
f 36/3/45 84/63/45 85/69/45 39/8/45
f 41/10/46 86/70/46 87/71/46 40/11/46
f 42/14/47 50/72/47 86/70/47 41/10/47
f 43/16/48 51/73/48 50/72/48 42/14/48
f 40/11/49 87/71/49 51/73/49 43/16/49
f 45/62/50 53/64/50 88/67/50 84/63/50
f 46/68/51 54/74/51 53/64/51 45/62/51
f 85/69/18 89/75/18 54/74/18 46/68/18
f 50/72/18 58/76/18 90/77/18 86/70/18
f 51/73/52 59/78/52 58/76/52 50/72/52
f 87/71/50 91/79/50 59/78/50 51/73/50
f 54/74/53 62/80/53 61/65/53 53/64/53
f 89/75/54 63/81/54 62/80/54 54/74/54
f 88/67/55 60/66/55 63/81/55 89/75/55
f 90/77/56 65/82/56 64/83/56 91/79/56
f 58/76/57 66/84/57 65/82/57 90/77/57
f 59/78/58 67/85/58 66/84/58 58/76/58
f 91/79/59 64/83/59 67/85/59 59/78/59
f 61/65/60 62/80/60 63/81/60 60/66/60
f 65/82/61 66/84/61 67/85/61 64/83/61
f 25/86/62 24/87/62 68/33/62 69/27/62
f 26/88/62 25/86/62 69/27/62 70/52/62
f 24/87/62 27/89/62 71/22/62 68/33/62
f 27/89/62 26/88/62 70/52/62 71/22/62
f 25/86/63 76/90/63 77/91/63 24/87/63
f 26/88/64 78/92/64 76/90/64 25/86/64
f 27/89/65 79/93/65 78/92/65 26/88/65
f 24/87/66 77/91/66 79/93/66 27/89/66
f 73/94/62 72/95/62 77/91/62 76/90/62
f 74/96/62 73/94/62 76/90/62 78/92/62
f 75/97/62 74/96/62 78/92/62 79/93/62
f 72/95/62 75/97/62 79/93/62 77/91/62
f 44/98/67 47/99/67 85/69/67 84/63/67
f 49/100/68 48/101/68 87/71/68 86/70/68
f 55/102/67 52/103/67 88/67/67 89/75/67
f 52/103/67 44/98/67 84/63/67 88/67/67
f 47/99/67 55/102/67 89/75/67 85/69/67
f 56/104/68 57/105/68 90/77/68 91/79/68
f 57/105/68 49/100/68 86/70/68 90/77/68
f 48/101/68 56/104/68 91/79/68 87/71/68
f 9/106/18 10/107/18 101/108/18 100/48/18
f 11/109/18 9/106/18 100/48/18 102/23/18
f 10/107/18 12/110/18 103/111/18 101/108/18
f 12/110/18 11/109/18 102/23/18 103/111/18
f 12/110/69 105/112/69 104/113/69 11/109/69
f 10/107/60 106/114/60 105/112/60 12/110/60
f 9/106/70 107/115/70 106/114/70 10/107/70
f 11/109/61 104/113/61 107/115/61 9/106/61
f 105/112/71 109/43/71 108/42/71 104/113/71
f 106/114/72 110/44/72 109/43/72 105/112/72
f 107/115/73 111/45/73 110/44/73 106/114/73
f 104/113/74 108/42/74 111/45/74 107/115/74
usemtl glow
f 101/108/75 32/17/75 2/20/75
f 100/48/76 3/28/76 33/35/76
f 100/116/77 101/117/77 2/118/77 3/119/77
f 80/120/62 81/121/62 82/122/62 83/123/62
f 73/94/18 81/121/18 80/120/18 72/95/18
f 74/96/61 82/122/61 81/121/61 73/94/61
f 75/97/50 83/123/50 82/122/50 74/96/50
f 72/95/60 80/120/60 83/123/60 75/97/60
f 92/124/67 93/125/67 94/126/67 95/127/67
f 52/103/18 93/125/18 92/124/18 44/98/18
f 55/102/78 94/126/78 93/125/78 52/103/78
f 47/99/50 95/127/50 94/126/50 55/102/50
f 44/98/79 92/124/79 95/127/79 47/99/79
f 96/128/68 97/129/68 98/130/68 99/131/68
f 57/105/50 97/129/50 96/128/50 49/100/50
f 56/104/80 98/130/80 97/129/80 57/105/80
f 48/101/18 99/131/18 98/130/18 56/104/18
f 49/100/81 96/128/81 99/131/81 48/101/81
