# Blender v2.90.1 OBJ File: 'pulselaser.blend'
# www.blender.org
mtllib pulselaser.mtl
o Cube
v 0.903205 0.037119 -0.196474
v 1.200000 -0.037119 -0.400000
v 0.903205 0.037119 0.196474
v 1.200000 -0.037119 0.400000
v 0.218769 0.037119 -0.196474
v -1.200000 -0.037119 -0.400000
v 0.218769 0.037119 0.196474
v -1.200000 -0.037119 0.400000
v 1.200000 0.037119 0.400000
v -1.200000 0.037119 0.400000
v 1.200000 0.037119 -0.400000
v -1.200000 0.037119 -0.400000
v 1.288315 0.499068 0.145307
v 0.112758 0.610054 0.088355
v 1.288315 0.499068 -0.145271
v 0.112758 0.610054 -0.088319
v 1.288315 1.032523 0.145307
v 0.112758 0.972074 0.088355
v 1.288315 1.032523 -0.145271
v 0.112758 0.972074 -0.088319
v 1.117194 0.733771 0.417413
v 0.827787 0.733771 0.417413
v 1.124763 0.864428 0.416258
v 0.785572 0.864428 0.416258
v 0.827787 0.733772 -0.417516
v 1.117194 0.733772 -0.417516
v 0.785573 0.864427 -0.416586
v 1.124763 0.864427 -0.416586
v 0.324787 0.499068 0.145307
v 0.324787 0.499068 -0.145271
v 0.324787 1.032523 0.145307
v 0.324787 1.032523 -0.145271
v -1.837478 0.661700 0.043424
v -1.837478 0.661700 -0.043387
v -1.715954 0.869891 0.043424
v -1.715954 0.869891 -0.043387
v -1.837454 0.622895 0.088355
v -1.837454 0.622895 -0.088319
v -1.670629 0.908696 0.088355
v -1.670629 0.908696 -0.088319
v -1.800649 0.640202 0.043424
v -1.800649 0.640202 -0.043387
v -1.679125 0.848394 0.043424
v -1.679125 0.848394 -0.043387
v 1.193710 0.652698 0.418129
v 0.768779 0.652698 0.418129
v 1.210672 0.945502 0.415541
v 0.674174 0.945502 0.415541
v 0.768779 0.652698 -0.418093
v 1.193710 0.652698 -0.418093
v 0.674174 0.945502 -0.416010
v 1.210672 0.945502 -0.416010
vt 0.655916 0.592748
vt 0.844084 0.592748
vt 0.844084 0.592748
vt 0.655916 0.592748
vt 0.375000 0.750000
vt 0.625000 0.750000
vt 0.625000 1.000000
vt 0.375000 1.000000
vt 0.375000 0.000000
vt 0.625000 0.000000
vt 0.625000 0.250000
vt 0.375000 0.250000
vt 0.125000 0.500000
vt 0.375000 0.500000
vt 0.125000 0.750000
vt 0.625000 0.500000
vt 0.655916 0.657252
vt 0.844084 0.657252
vt 0.875000 0.750000
vt 0.875000 0.500000
vt 0.844084 0.657252
vt 0.655916 0.657252
vt 0.655916 0.657252
vt 0.844084 0.657252
vt 0.655916 0.592748
vt 0.844084 0.592748
vt 0.844084 0.657252
vt 0.655916 0.657252
vt 0.655916 0.592748
vt 0.844084 0.592748
vt 0.655916 0.657252
vt 0.844084 0.657252
vt 0.844084 0.592748
vt 0.655916 0.592748
vt 0.844084 0.644609
vt 0.844084 0.605391
vt 0.844084 0.605391
vt 0.844084 0.644609
vt 0.844084 0.644609
vt 0.844084 0.605391
vt 0.844084 0.615365
vt 0.844084 0.615365
vt 0.844084 0.615365
vt 0.844084 0.615365
vt 0.844084 0.644609
vt 0.844084 0.605391
vt 0.844084 0.634635
vt 0.844084 0.634635
vt 0.844084 0.634635
vt 0.844084 0.634635
vt 0.689130 0.657252
vt 0.809974 0.657252
vt 0.812467 0.657252
vt 0.686671 0.657252
vt 0.809974 0.592748
vt 0.689130 0.592748
vt 0.686671 0.592748
vt 0.812467 0.592748
vn 0.0000 0.1102 -0.9939
vn 0.0000 0.0000 1.0000
vn -1.0000 0.0000 0.0000
vn 0.0000 -1.0000 0.0000
vn 1.0000 0.0000 0.0000
vn 0.0000 0.0000 -1.0000
vn 0.0000 1.0000 0.0000
vn 0.0000 -0.8713 0.4907
vn 0.7681 -0.6403 0.0000
vn -0.9747 0.2237 0.0000
vn 0.0000 0.1101 0.9939
vn 0.0000 0.9520 -0.3060
vn 0.9524 -0.0186 0.3044
vn 0.0000 0.9519 0.3065
vn -0.5602 -0.0616 0.8260
vn 0.0000 -0.8713 -0.4907
vn -0.5606 -0.0621 -0.8258
vn 0.9524 -0.0188 -0.3041
vn -0.0355 0.9994 0.0000
vn -0.4638 -0.8860 0.0000
vn -0.2742 0.9617 0.0000
vn -0.2594 0.0000 0.9658
vn -0.2594 0.0000 -0.9658
vn -0.0066 -1.0000 0.0000
vn -1.0000 -0.0006 0.0000
vn -0.6504 0.7596 0.0000
vn -0.7917 0.4621 0.3995
vn -0.7917 0.4621 -0.3995
vn -0.5041 -0.8636 0.0000
vn 0.5041 0.8636 0.0000
vn 0.0000 0.0088 1.0000
vn 0.0000 0.0071 -1.0000
vn -0.8636 0.5041 0.0000
usemtl Material
s off
f 1/1/1 5/2/1 30/3/1 15/4/1
f 4/5/2 9/6/2 10/7/2 8/8/2
f 8/9/3 10/10/3 12/11/3 6/12/3
f 6/13/4 2/14/4 4/5/4 8/15/4
f 2/14/5 11/16/5 9/6/5 4/5/5
f 6/12/6 12/11/6 11/16/6 2/14/6
f 3/17/7 7/18/7 10/19/7 9/6/7
f 1/1/7 3/17/7 9/6/7 11/16/7
f 7/18/7 5/2/7 12/20/7 10/19/7
f 5/2/7 1/1/7 11/16/7 12/20/7
f 29/21/8 13/22/8 45/23/8 46/24/8
f 3/17/9 1/1/9 15/4/9 13/22/9
f 5/2/10 7/18/10 29/21/10 30/3/10
f 7/18/11 3/17/11 13/22/11 29/21/11
f 19/25/7 32/26/7 31/27/7 17/28/7
f 32/26/12 19/25/12 52/29/12 51/30/12
f 13/22/5 15/4/5 19/25/5 17/28/5
f 13/22/13 17/28/13 47/31/13 45/23/13
f 17/28/14 31/27/14 48/32/14 47/31/14
f 31/27/15 29/21/15 46/24/15 48/32/15
f 15/4/16 30/3/16 49/33/16 50/34/16
f 30/3/17 32/26/17 51/30/17 49/33/17
f 19/25/18 15/4/18 50/34/18 52/29/18
f 18/35/19 20/36/19 40/37/19 39/38/19
f 14/39/20 16/40/20 30/3/20 29/21/20
f 20/36/21 18/35/21 31/27/21 32/26/21
f 18/35/22 14/39/22 29/21/22 31/27/22
f 16/40/23 20/36/23 32/26/23 30/3/23
f 36/41/2 34/42/2 42/43/2 44/44/2
f 14/39/2 18/35/2 39/38/2 37/45/2
f 16/40/24 14/39/24 37/45/24 38/46/24
f 20/36/6 16/40/6 38/46/6 40/37/6
f 33/47/25 34/42/25 38/46/25 37/45/25
f 36/41/26 35/48/26 39/38/26 40/37/26
f 35/48/27 33/47/27 37/45/27 39/38/27
f 34/42/28 36/41/28 40/37/28 38/46/28
f 35/48/29 36/41/29 44/44/29 43/49/29
f 33/47/6 35/48/6 43/49/6 41/50/6
f 34/42/30 33/47/30 41/50/30 42/43/30
f 21/51/31 22/52/31 46/24/31 45/23/31
f 24/53/31 23/54/31 47/31/31 48/32/31
f 23/54/31 21/51/31 45/23/31 47/31/31
f 22/52/31 24/53/31 48/32/31 46/24/31
f 25/55/32 26/56/32 50/34/32 49/33/32
f 28/57/32 27/58/32 51/30/32 52/29/32
f 27/58/32 25/55/32 49/33/32 51/30/32
f 26/56/32 28/57/32 52/29/32 50/34/32
usemtl Material.001
f 22/52/31 21/51/31 23/54/31 24/53/31
f 26/56/32 25/55/32 27/58/32 28/57/32
f 42/43/33 41/50/33 43/49/33 44/44/33
