# Blender v2.90.1 OBJ File: 'wasp.blend'
# www.blender.org
mtllib wasp.mtl
o Cube
v -0.130362 0.017872 -0.045960
v 0.600000 -0.017872 -0.200000
v -0.130362 0.017872 0.045960
v 0.600000 -0.017872 0.200000
v -0.405771 0.017872 -0.045960
v -0.600000 -0.017872 -0.200000
v -0.405771 0.017872 0.045960
v -0.600000 -0.017872 0.200000
v -0.244972 0.236345 -0.038136
v -0.507386 0.236345 -0.038175
v -0.507386 0.236345 0.038175
v -0.244972 0.236345 0.038136
v 0.024572 0.289985 -0.055465
v -0.654988 0.322331 -0.095425
v -0.654988 0.322331 0.095425
v 0.024572 0.289985 0.055464
v 0.125559 0.420215 -0.008449
v -0.604160 0.387870 -0.071713
v -0.604160 0.387870 0.071713
v 0.125559 0.420215 0.008449
v -0.314053 0.323348 -0.095321
v -0.314053 0.323348 0.095321
v -0.367398 0.386854 -0.071685
v -0.367398 0.386854 0.071685
v 0.258443 0.460294 -0.045846
v 0.258443 0.460294 0.045846
v 0.228074 0.421130 -0.008449
v 0.228074 0.421130 0.008449
v 1.422487 0.377558 -0.015251
v 1.422566 0.352862 -0.023274
v 1.422566 0.352862 0.023274
v 1.422487 0.377558 0.015251
v 0.600000 0.017872 0.200000
v -0.600000 0.017872 0.200000
v 0.600000 0.017872 -0.200000
v -0.600000 0.017872 -0.200000
v 1.422594 0.344022 -0.035442
v 1.422459 0.386399 -0.021674
v 1.422459 0.386399 0.021674
v 1.422594 0.344022 0.035442
v -0.804538 0.250821 -0.121265
v -0.005797 0.250821 -0.121140
v -0.005797 0.250821 0.121140
v -0.804538 0.250821 0.121265
v -0.642812 0.459378 -0.045894
v 0.155928 0.459378 -0.045846
v 0.155928 0.459378 0.045846
v -0.642812 0.459378 0.045894
vt 0.375000 0.750000
vt 0.625000 0.750000
vt 0.625000 1.000000
vt 0.375000 1.000000
vt 0.375000 0.000000
vt 0.625000 0.000000
vt 0.625000 0.250000
vt 0.375000 0.250000
vt 0.125000 0.500000
vt 0.375000 0.500000
vt 0.125000 0.750000
vt 0.625000 0.500000
vt 0.651083 0.671752
vt 0.848917 0.671752
vt 0.875000 0.750000
vt 0.651083 0.578248
vt 0.848917 0.578248
vt 0.875000 0.500000
vt 0.686175 0.605057
vt 0.813825 0.605037
vt 0.813825 0.644963
vt 0.686175 0.644943
vt 0.813825 0.605037
vt 0.813825 0.605037
vt 0.686175 0.605057
vt 0.686175 0.605057
vt 0.813825 0.644963
vt 0.813825 0.644963
vt 0.686175 0.644943
vt 0.686175 0.644943
vt 0.813825 0.605037
vt 0.686175 0.605057
vt 0.813825 0.644963
vt 0.686175 0.644943
vt 0.686175 0.628011
vt 0.686175 0.635112
vt 0.686175 0.635112
vt 0.686175 0.634144
vt 0.686175 0.628011
vt 0.686175 0.614888
vt 0.686175 0.614888
vt 0.686175 0.621990
vt 0.686175 0.621990
vt 0.686175 0.615856
vt 0.686175 0.605057
vt 0.686175 0.644943
vt 0.686175 0.619037
vt 0.686175 0.617955
vt 0.686175 0.630963
vt 0.686175 0.632045
vt 0.798786 0.605039
vt 0.701214 0.605055
vt 0.701214 0.644945
vt 0.798786 0.644961
vt 0.701214 0.605055
vt 0.798786 0.605039
vt 0.798786 0.644961
vt 0.701214 0.644945
vn 0.0000 0.0000 1.0000
vn -1.0000 0.0000 0.0000
vn 0.0000 -1.0000 0.0000
vn 1.0000 0.0000 0.0000
vn 0.0000 0.0000 -1.0000
vn 0.0000 1.0000 0.0000
vn 0.0001 0.0357 -0.9994
vn -0.9067 -0.4217 0.0000
vn 0.0001 0.0357 0.9994
vn 0.8855 0.4646 0.0000
vn 0.0000 -0.9851 -0.1717
vn -0.0487 -0.9988 0.0000
vn 0.0000 -0.9851 0.1717
vn 0.0604 -0.9982 0.0000
vn -0.7902 0.6128 0.0000
vn -0.0002 0.3312 0.9436
vn 0.7902 -0.6128 0.0000
vn 0.0386 -0.9993 0.0000
vn -0.0002 0.3312 -0.9436
vn 0.0062 -0.6931 -0.7208
vn 0.0062 -0.6931 0.7208
vn -0.0089 1.0000 0.0000
vn 0.0291 0.9996 0.0000
vn 1.0000 0.0032 0.0000
vn -0.0001 0.3375 -0.9413
vn -0.0001 0.3375 0.9413
vn 0.0004 0.3364 -0.9417
vn 0.0004 0.3364 0.9417
vn 0.0001 0.3399 -0.9405
vn 0.0000 0.3417 -0.9398
vn 0.0001 0.3399 0.9405
vn 0.0000 0.3417 0.9398
vn 0.0002 0.3445 -0.9388
vn 0.0002 0.3445 0.9388
usemtl Material
s off
f 4/1/1 33/2/1 34/3/1 8/4/1
f 8/5/2 34/6/2 36/7/2 6/8/2
f 6/9/3 2/10/3 4/1/3 8/11/3
f 2/10/4 35/12/4 33/2/4 4/1/4
f 6/8/5 36/7/5 35/12/5 2/10/5
f 3/13/6 7/14/6 34/15/6 33/2/6
f 1/16/6 3/13/6 33/2/6 35/12/6
f 7/14/6 5/17/6 36/18/6 34/15/6
f 5/17/6 1/16/6 35/12/6 36/18/6
usemtl main
f 46/19/6 45/20/6 48/21/6 47/22/6
f 5/23/7 10/24/7 9/25/7 1/26/7
f 7/27/8 11/28/8 10/24/8 5/23/8
f 3/29/9 12/30/9 11/28/9 7/27/9
f 1/26/10 9/25/10 12/30/10 3/29/10
f 10/24/11 41/31/11 42/32/11 9/25/11
f 11/28/12 44/33/12 41/31/12 10/24/12
f 12/30/13 43/34/13 44/33/13 11/28/13
f 9/25/14 42/32/14 43/34/14 12/30/14
f 44/33/15 48/21/15 45/20/15 41/31/15
f 20/35/16 16/36/16 40/37/16 39/38/16 28/39/16
f 13/40/17 16/36/17 43/34/17 42/32/17
f 16/36/18 13/40/18 37/41/18 40/37/18
f 17/42/17 13/40/17 42/32/17 46/19/17
f 16/36/17 20/35/17 47/22/17 43/34/17
f 13/40/19 17/42/19 27/43/19 38/44/19 37/41/19
f 28/39/17 27/43/17 25/45/17 26/46/17
f 17/42/20 46/19/20 25/45/20 27/43/20
f 47/22/21 20/35/21 28/39/21 26/46/21
f 46/19/22 47/22/22 26/46/22 25/45/22
f 38/44/23 27/43/23 28/39/23 39/38/23
f 29/47/24 30/48/24 37/41/24 38/44/24
f 32/49/24 29/47/24 38/44/24 39/38/24
f 31/50/24 32/49/24 39/38/24 40/37/24
f 30/48/24 31/50/24 40/37/24 37/41/24
f 14/51/25 21/52/25 42/32/25 41/31/25
f 22/53/26 15/54/26 44/33/26 43/34/26
f 23/55/27 18/56/27 45/20/27 46/19/27
f 19/57/28 24/58/28 47/22/28 48/21/28
f 18/56/29 14/51/29 41/31/29 45/20/29
f 21/52/30 23/55/30 46/19/30 42/32/30
f 15/54/31 19/57/31 48/21/31 44/33/31
f 24/58/32 22/53/32 43/34/32 47/22/32
usemtl glow
f 14/51/33 18/56/33 23/55/33 21/52/33
f 22/53/34 24/58/34 19/57/34 15/54/34
f 29/47/24 32/49/24 31/50/24 30/48/24
